<svg xmlns="http://www.w3.org/2000/svg" xmlns:xlink="http://www.w3.org/1999/xlink" width="50" zoomAndPan="magnify" viewBox="0 0 37.5 37.499999" height="50" preserveAspectRatio="xMidYMid meet" version="1.0"><path fill="#1a1a1a" d="M 15.082031 15.820312 C 15.082031 15.007812 14.414062 14.355469 13.605469 14.355469 L 9.960938 14.355469 L 9.960938 17.285156 L 13.605469 17.285156 C 14.414062 17.285156 15.082031 16.628906 15.082031 15.820312 Z M 15.082031 15.820312 " fill-opacity="1" fill-rule="evenodd"/><path fill="#1a1a1a" d="M 13.605469 19.480469 L 9.960938 19.480469 L 9.960938 23.144531 L 14.351562 23.144531 C 15.164062 23.144531 15.808594 22.195312 15.808594 21.386719 C 15.808594 19.828125 14.414062 19.480469 13.605469 19.480469 Z M 13.605469 19.480469 " fill-opacity="1" fill-rule="evenodd"/><path fill="#1a1a1a" d="M 31.820312 1.171875 L 5.679688 1.171875 C 3.203125 1.171875 1.171875 3.203125 1.171875 5.679688 L 1.171875 31.820312 C 1.171875 34.296875 3.203125 36.328125 5.679688 36.328125 L 31.820312 36.328125 C 34.296875 36.328125 36.328125 34.296875 36.328125 31.820312 L 36.328125 5.679688 C 36.328125 3.203125 34.296875 1.171875 31.820312 1.171875 Z M 21.679688 12.15625 L 28.269531 12.15625 L 28.269531 14.355469 L 21.679688 14.355469 Z M 14.351562 26.074219 L 7.03125 26.074219 L 7.03125 11.425781 L 14.351562 11.425781 C 16.367188 11.425781 18.011719 13.0625 18.011719 15.097656 C 18.011719 16.40625 17.304688 17.566406 16.265625 18.210938 C 17.699219 18.710938 18.761719 20.074219 18.761719 21.675781 C 18.757812 24.105469 16.761719 26.074219 14.351562 26.074219 Z M 30.46875 20.945312 L 22.417969 20.945312 C 22.519531 22.558594 23.601562 23.878906 24.996094 23.878906 C 26.367188 23.878906 27.136719 22.996094 27.40625 21.679688 L 30.378906 21.679688 C 29.878906 24.167969 28.300781 26.082031 24.996094 26.082031 C 21.667969 26.082031 19.488281 23.632812 19.488281 20.578125 C 19.488281 17.542969 21.664062 15.09375 24.988281 15.09375 C 28.292969 15.09375 30.46875 17.542969 30.46875 20.578125 C 30.46875 20.699219 30.46875 20.800781 30.46875 20.945312 Z M 30.46875 20.945312 " fill-opacity="1" fill-rule="evenodd"/><path fill="#1a1a1a" d="M 24.996094 17.300781 C 23.707031 17.300781 22.730469 18.164062 22.5625 19.480469 L 27.40625 19.480469 C 27.195312 18.164062 26.261719 17.300781 24.996094 17.300781 Z M 24.996094 17.300781 " fill-opacity="1" fill-rule="evenodd"/></svg>